<svg id="visual" viewBox="0 0 960 540" width="960" height="540" xmlns="http://www.w3.org/2000/svg" xmlns:xlink="http://www.w3.org/1999/xlink" version="1.1"><rect x="0" y="0" width="960" height="540" fill="#333745"></rect><path d="M0 96L32 94.3C64 92.7 128 89.3 192 106.8C256 124.3 320 162.7 384 196C448 229.3 512 257.7 576 245.2C640 232.7 704 179.3 768 152.2C832 125 896 124 928 123.5L960 123L960 0L928 0C896 0 832 0 768 0C704 0 640 0 576 0C512 0 448 0 384 0C320 0 256 0 192 0C128 0 64 0 32 0L0 0Z" fill="#fa7268"></path><path d="M0 147L32 153.7C64 160.3 128 173.7 192 169.3C256 165 320 143 384 125.2C448 107.3 512 93.7 576 93C640 92.3 704 104.7 768 127.2C832 149.7 896 182.3 928 198.7L960 215L960 0L928 0C896 0 832 0 768 0C704 0 640 0 576 0C512 0 448 0 384 0C320 0 256 0 192 0C128 0 64 0 32 0L0 0Z" fill="#eb5967"></path><path d="M0 148L32 131.3C64 114.7 128 81.3 192 74.3C256 67.3 320 86.7 384 86.3C448 86 512 66 576 58.8C640 51.7 704 57.3 768 74.5C832 91.7 896 120.3 928 134.7L960 149L960 0L928 0C896 0 832 0 768 0C704 0 640 0 576 0C512 0 448 0 384 0C320 0 256 0 192 0C128 0 64 0 32 0L0 0Z" fill="#da3f67"></path><path d="M0 71L32 74.2C64 77.3 128 83.7 192 90.2C256 96.7 320 103.3 384 102.7C448 102 512 94 576 80.7C640 67.3 704 48.7 768 52.8C832 57 896 84 928 97.5L960 111L960 0L928 0C896 0 832 0 768 0C704 0 640 0 576 0C512 0 448 0 384 0C320 0 256 0 192 0C128 0 64 0 32 0L0 0Z" fill="#c62368"></path></svg>