<svg id="visual" viewBox="0 0 960 540" width="960" height="540" xmlns="http://www.w3.org/2000/svg" xmlns:xlink="http://www.w3.org/1999/xlink" version="1.1"><rect x="0" y="0" width="960" height="540" fill="#333745"></rect><path d="M0 174L16 176.7C32 179.3 64 184.7 96 177C128 169.3 160 148.7 192 150.8C224 153 256 178 288 177C320 176 352 149 384 136.7C416 124.3 448 126.7 480 131.2C512 135.7 544 142.3 576 152.8C608 163.3 640 177.7 672 172.5C704 167.3 736 142.7 768 151C800 159.3 832 200.7 864 208.2C896 215.7 928 189.3 944 176.2L960 163" fill="none" stroke-linecap="round" stroke-linejoin="miter" stroke="#1EFFBC" stroke-width="15"></path></svg>